<?xml version="1.0" encoding="utf-8"?>
<!-- Generator: Adobe Illustrator 18.0.0, SVG Export Plug-In . SVG Version: 6.00 Build 0)  -->
<!DOCTYPE svg PUBLIC "-//W3C//DTD SVG 1.1//EN" "http://www.w3.org/Graphics/SVG/1.1/DTD/svg11.dtd">
<svg version="1.1" id="Layer_1" xmlns="http://www.w3.org/2000/svg" xmlns:xlink="http://www.w3.org/1999/xlink" x="0px" y="0px"
	 width="50px" height="50px" viewBox="0 0 50 50" enable-background="new 0 0 50 50" xml:space="preserve">
<path fill="#1E1E1E" d="M23.5,2.2c0.5,2.3-1.3,7.2-1.8,8.6c0.1,0.7,1.2,1,2.1,2c-1.3-0.6-2.3-0.7-2.7-1.3c-0.7,2.2-1.1,5.5-1.1,7.8
	c0.5,0.4,1.1,0.3,2.3,0.7c-1,0.1-1.6,0.5-2,0.3c0.5,3.5,2.2,7.9,3.7,11.3c-1.2-0.8-2.3-2.3-2.9-3.6c-0.4-0.7-0.5-0.4-0.4,0
	c0.2,2.5,4,5.5,4.1,5.5c0,0.5,0,1,0,1.6c-0.7-1.3-2.3-2-3.3-3.3c-0.5-0.7-0.5,0-0.3,0.3c0.5,0.9,1.5,1.7,2.2,2.4
	c0.7,0.7,1.3,1.3,1.4,2.5c0,0.4,0.1,2.2,0.1,3.8c0,1.4,0.8,1.6,0.8,0c0-1.3-0.1-2.5-0.1-3.7c0-0.8,0.1-1.1,0.9-2
	c0.6-0.6,1.3-1.4,1.8-2c0.5-0.6,0.3-1.2-0.5-0.4c-0.7,0.7-2.3,2.4-2.3,2.5c0-0.4,0-1,0-1.5c0,0,0.3-0.4,0.5-1.1
	c0.6-1.3,1.1-2.6,1.8-3.9c0.7-1.4,1.6-2.5,1.9-4.1c0.1-0.3-0.3-1.1-0.5-0.2c-0.3,1.1-1,2-1.6,3c0.8-2.8,1.6-6.2,1.9-9.1
	c-0.9-0.1-1.4-0.4-1.8-0.5c0.6-0.1,1.9-0.2,2.2-0.6c0-0.6,0-1.3,0-1.8c0-0.9-0.2-2.1-0.3-2.9c-0.6,0.2-1,0.3-1.6,0.3
	c1.2-0.8,1.2-1.4,1.1-1.7c-1.1-3.8-3.3-7.2-5.4-10.6C22.9-0.9,23.2,1,23.5,2.2z"/>
<path fill="#1E1E1E" d="M38.5,13.5c0.4,1.6-0.9,5.2-1.3,6.2c0.1,0.5,0.8,0.7,1.5,1.4c-0.9-0.4-1.6-0.5-1.9-0.9
	c-0.5,1.6-0.8,4-0.7,5.6c0.3,0.3,0.8,0.2,1.6,0.5c-0.7,0.1-1.2,0.3-1.4,0.2c0.3,2.5,1.5,5.6,2.6,8.1c-0.8-0.6-1.6-1.7-2-2.5
	c-0.3-0.5-0.3-0.3-0.3,0c0.2,1.8,2.8,3.9,2.9,3.9c0,0.4,0,0.7,0,1.1c-0.5-0.9-1.6-1.4-2.3-2.4c-0.4-0.5-0.3,0-0.2,0.2
	c0.4,0.6,1,1.2,1.5,1.7c0.5,0.5,0.9,0.9,1,1.8c0,0.3,0,1.6,0.1,2.7c0,1,0.5,1.1,0.6,0c0-0.9-0.1-1.8-0.1-2.7c0-0.6,0.1-0.8,0.6-1.5
	c0.4-0.5,0.9-1,1.3-1.5c0.3-0.4,0.2-0.9-0.3-0.3c-0.5,0.5-1.6,1.7-1.6,1.8c0-0.3,0-0.7,0-1c0,0,0.2-0.3,0.4-0.8
	c0.4-0.9,0.8-1.9,1.2-2.8c0.5-1,1.1-1.8,1.3-2.9c0-0.2-0.2-0.8-0.4-0.1c-0.2,0.8-0.7,1.5-1.1,2.2c0.6-2,1.1-4.4,1.4-6.5
	c-0.6-0.1-1-0.3-1.3-0.4c0.4,0,1.3-0.1,1.5-0.4c0-0.5,0-0.9,0-1.3c0-0.6-0.1-1.5-0.2-2.1c-0.4,0.1-0.7,0.2-1.1,0.2
	c0.8-0.6,0.8-1,0.7-1.2c-0.7-2.7-2.3-5.1-3.8-7.6C38.1,11.4,38.3,12.7,38.5,13.5z"/>
<path fill="#1E1E1E" d="M9.5,13.5c0.4,1.6-0.9,5.2-1.3,6.2c0.1,0.5,0.8,0.7,1.5,1.4c-0.9-0.4-1.6-0.5-1.9-0.9
	c-0.5,1.6-0.8,4-0.7,5.6c0.3,0.3,0.8,0.2,1.6,0.5c-0.7,0.1-1.2,0.3-1.4,0.2c0.3,2.5,1.5,5.6,2.6,8.1C9,34,8.3,32.9,7.8,32
	c-0.3-0.5-0.3-0.3-0.3,0c0.2,1.8,2.8,3.9,2.9,3.9c0,0.4,0,0.7,0,1.1c-0.5-0.9-1.6-1.4-2.3-2.4c-0.4-0.5-0.3,0-0.2,0.2
	c0.4,0.6,1,1.2,1.5,1.7c0.5,0.5,0.9,0.9,1,1.8c0,0.3,0,1.6,0.1,2.7c0,1,0.5,1.1,0.6,0c0-0.9-0.1-1.8-0.1-2.7c0-0.6,0.1-0.8,0.6-1.5
	c0.4-0.5,0.9-1,1.3-1.5c0.3-0.4,0.2-0.9-0.3-0.3c-0.5,0.5-1.6,1.7-1.6,1.8c0-0.3,0-0.7,0-1c0,0,0.2-0.3,0.4-0.8
	c0.4-0.9,0.8-1.9,1.2-2.8c0.5-1,1.1-1.8,1.3-2.9c0-0.2-0.2-0.8-0.4-0.1c-0.2,0.8-0.7,1.5-1.1,2.2c0.6-2,1.1-4.4,1.4-6.5
	c-0.6-0.1-1-0.3-1.3-0.4c0.4,0,1.3-0.1,1.5-0.4c0-0.5,0-0.9,0-1.3c0-0.6-0.1-1.5-0.2-2.1c-0.4,0.1-0.7,0.2-1.1,0.2
	c0.8-0.6,0.8-1,0.7-1.2c-0.7-2.7-2.3-5.1-3.8-7.6C9.1,11.4,9.3,12.7,9.5,13.5z"/>
</svg>
