<svg width="416" height="380" viewBox="0 0 416 380" fill="none" xmlns="http://www.w3.org/2000/svg">
<path d="M189.778 331.389C318.875 327.053 365.133 262.607 374.466 197.618C382.817 139.479 342.484 47.4457 285.034 59.6691C229.46 71.4935 226.241 145.536 171.025 158.935C163.101 160.858 154.379 161.473 144.842 160.29C82.5603 152.565 38.1426 146.288 38.1426 226.433C38.1426 246.797 42.9803 263.706 50.3511 277.523C75.3242 324.334 136.752 333.17 189.778 331.389Z" stroke="#D7F3F9"/>
<path d="M140.684 309.907C262.007 354.24 329.036 311.812 362.032 255.049C391.551 204.27 388.626 103.83 330.78 93.6451C274.822 83.7929 244.105 151.24 187.889 142.982C179.823 141.797 171.505 139.1 163.105 134.431C108.251 103.941 69.4174 81.4842 39.3986 155.795C31.7713 174.676 29.9235 192.166 31.5826 207.738C37.2042 260.496 90.8506 291.697 140.684 309.907Z" fill="#F2FDFF"/>
<path d="M335.532 301.484C335.532 301.573 278.335 301.648 207.794 301.648C137.23 301.648 80.0449 301.576 80.0449 301.484C80.0449 301.393 137.23 301.321 207.794 301.321C278.335 301.324 335.532 301.396 335.532 301.484Z" fill="#263238"/>
<path d="M102.07 198.243L175.326 136.718C177.412 134.967 180.588 134.967 182.671 136.718L255.926 198.243H102.07Z" fill="#00B5D5"/>
<path d="M255.926 198.243H102.07V301.299H255.926V198.243Z" fill="#00B5D5"/>
<g opacity="0.3">
<path d="M112.68 198.243L176.835 144.365C178.071 143.327 179.954 143.327 181.189 144.365L245.344 198.243H112.68Z" fill="black"/>
</g>
<g opacity="0.3">
<path d="M102.119 198.371L174.492 250.642C177.077 252.507 181.015 252.507 183.603 250.642L255.975 198.371H102.119Z" fill="#0D606F"/>
</g>
<path d="M183.563 250.51C183.563 250.51 183.675 250.421 183.896 250.252C184.122 250.083 184.452 249.839 184.89 249.521C185.776 248.873 187.08 247.922 188.774 246.684C192.184 244.207 197.177 240.579 203.511 235.979C216.204 226.782 234.283 213.682 255.853 198.05L255.936 198.311C233.137 198.317 206.686 198.323 178.617 198.331C150.848 198.325 124.664 198.317 102.034 198.311L102.12 198.05C123.744 213.957 141.88 227.301 154.617 236.667C160.974 241.359 165.981 245.05 169.405 247.578C171.111 248.839 172.418 249.81 173.303 250.47C173.739 250.796 174.074 251.046 174.303 251.218C174.524 251.387 174.636 251.476 174.636 251.476C174.636 251.476 174.515 251.401 174.289 251.238C174.057 251.069 173.722 250.825 173.274 250.507C172.38 249.856 171.065 248.899 169.351 247.652C165.915 245.142 160.89 241.47 154.511 236.81C141.76 227.461 123.598 214.154 101.945 198.285L101.59 198.027H102.028C124.658 198.025 150.839 198.016 178.611 198.01C206.681 198.016 233.128 198.025 255.93 198.03H256.377L256.016 198.288C234.418 213.879 216.313 226.948 203.605 236.122C197.249 240.697 192.245 244.302 188.823 246.764C187.114 247.988 185.802 248.928 184.913 249.567C184.472 249.879 184.137 250.117 183.905 250.28C183.684 250.432 183.563 250.51 183.563 250.51Z" fill="#263238"/>
<path d="M252.183 117.639H110.938V280.727H252.183V117.639Z" fill="white"/>
<path d="M252.182 280.727C252.182 279.48 252.125 214.889 252.039 117.639L252.182 117.783C210.539 117.788 162.224 117.794 110.954 117.803H110.937L111.103 117.639C111.092 177.803 111.083 233.879 111.074 280.727L110.937 280.592C195.98 280.675 251.033 280.727 252.182 280.727C251.033 280.73 195.98 280.784 110.937 280.867H110.799V280.727C110.794 233.879 110.785 177.803 110.773 117.639V117.476H110.937H110.954C162.227 117.482 210.539 117.49 252.182 117.496H252.329V117.639C252.243 214.892 252.185 279.483 252.182 280.727Z" fill="#263238"/>
<path d="M299.962 118.224C301.034 118.494 306.631 121.621 308.253 126.854C309.603 131.213 311.73 156.557 311.922 156.113C311.922 156.113 316.327 182.426 318.883 193.81C318.883 193.81 315.774 197.962 313.879 198.112C313.621 198.132 312.822 193.067 311.624 190.428C308.265 183.011 302.378 171.354 301.297 164.771C300.862 162.1 299.773 156.537 299.305 155.322C298.638 153.579 297.359 130.462 297.359 130.462L299.962 118.224Z" fill="#FFBF9D"/>
<path d="M312.383 209.142C312.383 209.142 310.95 202.301 310.993 199.062C311.033 195.824 311.884 197.082 312.357 193.946C312.833 190.811 312.584 187.83 312.584 187.83L318.049 189.441L319.456 196.529L320.872 206.474C321.004 207.379 320.706 208.299 320.07 208.958C318.677 210.4 316.269 212.813 315.716 212.853C314.931 212.914 314.879 212.165 314.879 212.165C314.879 212.165 312.498 212.733 312.334 211.91C312.168 211.088 314.581 209.661 314.581 209.661L316.307 206.643L313.945 201.556C313.945 201.556 314.177 204.608 314.151 204.992C314.129 205.373 315.295 209.228 312.383 209.142Z" fill="#FFBF9D"/>
<path d="M222.684 108.857C222.684 108.857 244.15 107.478 253.671 109.682C263.186 111.889 266.932 117.641 266.932 117.641L257.766 128.93L243.049 115.503L222.684 108.857Z" fill="#FFBF9D"/>
<path d="M263.746 114.099C254.38 108.043 249.138 106.59 240.91 107.994L244.811 118.326L250.592 122.384L258.453 131.131L263.746 114.099Z" fill="#F1625C"/>
<path d="M259.524 288.459L262 302.087C262 302.087 247.3 307.854 247.186 310.591L275.797 310.052L273.633 289.076L259.524 288.459Z" fill="#101010"/>
<path d="M270.814 300.496C271.37 300.637 271.766 301.253 271.648 301.815C271.528 302.373 270.906 302.78 270.347 302.651C269.791 302.52 269.293 301.795 269.473 301.25C269.654 300.708 270.41 300.267 270.921 300.531" fill="#E0E0E0"/>
<path d="M275.8 310.405L275.422 307.556L248.169 308.931C248.169 308.931 246.819 309.886 246.982 310.78L275.8 310.405Z" fill="#455A64"/>
<path d="M261.632 301.76C261.638 301.9 262.337 301.949 263.033 302.388C263.741 302.806 264.105 303.402 264.234 303.345C264.363 303.316 264.14 302.485 263.286 301.972C262.437 301.45 261.597 301.634 261.632 301.76Z" fill="white"/>
<path d="M258.654 303.062C258.622 303.197 259.232 303.423 259.72 304.005C260.221 304.572 260.353 305.209 260.493 305.2C260.625 305.22 260.706 304.4 260.087 303.69C259.476 302.973 258.654 302.927 258.654 303.062Z" fill="white"/>
<path d="M256.86 306.681C256.987 306.71 257.167 306.01 256.797 305.251C256.428 304.488 255.766 304.199 255.708 304.319C255.631 304.434 256.064 304.838 256.362 305.463C256.668 306.085 256.72 306.672 256.86 306.681Z" fill="white"/>
<path d="M261.616 298.391C261.677 298.517 262.313 298.313 263.107 298.35C263.898 298.371 264.517 298.626 264.588 298.505C264.669 298.402 264.058 297.898 263.127 297.863C262.195 297.823 261.548 298.282 261.616 298.391Z" fill="white"/>
<path d="M290.208 286.515L290.661 304.356L286.946 318.569C286.68 319.592 287.336 320.632 288.376 320.827C288.958 320.936 289.551 320.764 289.981 320.351C292.698 317.735 302.646 308.053 302.54 306.749C302.417 305.242 303.314 287.902 303.314 287.902L290.208 286.515Z" fill="#101010"/>
<path d="M288.383 320.822L302.541 305.541L302.544 306.297C302.544 306.951 302.317 307.584 301.893 308.083C300.761 309.419 297.563 313.035 290.036 320.347C289.604 320.771 288.979 320.949 288.383 320.822Z" fill="#455A64"/>
<path d="M299.009 299.797C298.564 300.106 298.418 300.786 298.71 301.241C299.006 301.703 299.691 301.855 300.141 301.551C300.593 301.25 300.794 300.442 300.45 300.02C300.109 299.596 299.292 299.461 298.928 299.86" fill="#E0E0E0"/>
<path d="M292.6 313.02C292.5 313.071 292.096 312.134 291.032 311.636C289.986 311.105 289 311.358 288.977 311.249C288.96 311.203 289.187 311.065 289.605 311.005C290.021 310.945 290.623 310.999 291.204 311.286C291.786 311.57 292.205 312.011 292.408 312.378C292.617 312.742 292.646 313.006 292.6 313.02Z" fill="white"/>
<path d="M291.245 315.411C291.162 315.485 290.588 314.909 289.663 314.646C288.746 314.362 287.946 314.537 287.92 314.425C287.869 314.336 288.726 313.955 289.775 314.27C290.823 314.577 291.336 315.359 291.245 315.411Z" fill="white"/>
<path d="M294.835 309.945C294.751 310.031 293.872 309.137 292.473 308.601C291.08 308.048 289.828 308.111 289.825 307.991C289.793 307.896 291.12 307.647 292.616 308.237C294.115 308.813 294.921 309.897 294.835 309.945Z" fill="white"/>
<path d="M295.213 304.514C295.164 304.62 294.178 304.213 292.894 304.167C291.613 304.107 290.596 304.437 290.559 304.325C290.507 304.239 291.533 303.715 292.912 303.781C294.29 303.829 295.267 304.431 295.213 304.514Z" fill="white"/>
<path d="M295.328 299.277C295.271 299.38 294.282 298.786 292.926 298.852C291.568 298.89 290.622 299.552 290.562 299.451C290.53 299.414 290.728 299.191 291.138 298.953C291.545 298.712 292.181 298.488 292.909 298.46C293.64 298.434 294.291 298.612 294.718 298.821C295.142 299.027 295.354 299.236 295.328 299.277Z" fill="white"/>
<path d="M292.777 297.855C292.754 297.855 292.714 297.614 292.751 297.181C292.788 296.748 292.915 296.112 293.284 295.413C293.476 295.08 293.677 294.653 294.176 294.416C294.422 294.295 294.792 294.344 295.004 294.579C295.213 294.808 295.282 295.101 295.288 295.381C295.273 296.516 294.302 297.614 293.029 297.78C291.751 297.924 290.59 297.196 290.083 296.218C289.971 295.966 289.894 295.657 290.028 295.353C290.166 295.049 290.527 294.929 290.785 294.969C291.315 295.046 291.651 295.353 291.96 295.579C292.576 296.072 292.96 296.591 293.184 296.961C293.407 297.33 293.479 297.565 293.459 297.577C293.399 297.623 293.006 296.7 291.794 295.797C291.49 295.591 291.138 295.327 290.756 295.293C290.573 295.272 290.41 295.35 290.344 295.496C290.278 295.642 290.312 295.866 290.41 296.064C290.84 296.863 291.903 297.525 292.98 297.388C294.055 297.259 294.906 296.293 294.926 295.381C294.929 295.164 294.869 294.943 294.752 294.811C294.637 294.682 294.459 294.648 294.296 294.717C293.949 294.857 293.717 295.232 293.525 295.545C292.777 296.857 292.854 297.872 292.777 297.855Z" fill="white"/>
<path d="M280.194 92.1585C276.285 81.2849 268.724 77.2725 268.724 77.2725L243.134 90.1179C242.294 95.7926 244.08 105.68 243.985 111.57C243.902 116.614 242.83 119.704 242.83 119.704L253.391 117.322C253.391 117.322 252.83 113.851 253.188 113.473C253.543 113.098 255.309 116.749 255.309 116.749L284.591 110.332C284.591 110.332 282.478 98.501 280.194 92.1585Z" fill="#101010"/>
<path d="M266.402 76.0947C261.323 74.1287 256.099 74.3035 251.318 76.9115C248.621 78.3847 247.83 79.5655 246.202 81.1762C244.572 82.7869 243.419 84.8045 243.196 87.083C242.929 89.7914 243.015 92.6087 244.093 95.1078C245.199 97.6758 246.724 99.9342 248.292 101.622C250.189 103.671 253.866 106.368 256.411 107.529L260.793 105.701C264.267 103.884 267.78 102.038 270.661 99.3753C273.538 96.7157 275.751 93.1016 275.877 89.1838C276.058 83.7413 271.48 78.0608 266.402 76.0947Z" fill="#101010"/>
<path d="M260.877 79.1711L250.797 80.5668L248.791 82.0342C243.968 84.7913 243.658 92.0166 245.848 95.9487C248.281 100.319 251.419 105.558 253.93 108.373C258.977 114.03 264.784 111.448 264.784 111.448C264.784 111.448 265.491 112.809 266.397 114.546C268.297 118.189 272.843 119.53 276.414 117.498C279.847 115.546 281.091 111.21 279.217 107.737L264.302 80.1456C263.591 78.9791 262.101 78.5549 260.877 79.1711Z" fill="#FFBF9D"/>
<path d="M262.755 101.375C262.517 101.059 262.159 100.867 261.801 100.796C261.084 100.658 260.359 101.016 260.047 101.664C259.734 102.312 259.852 103.209 260.333 103.831C260.849 104.066 261.445 104.083 261.955 103.845C262.036 103.808 262.116 103.768 262.19 103.722C262.557 103.501 262.861 103.163 262.99 102.728C263.119 102.292 263.047 101.762 262.755 101.375Z" fill="#FF9A6C"/>
<path d="M252.066 99.3725C252.324 99.8082 252.905 99.9486 253.367 99.6878C253.825 99.427 253.992 98.8595 253.734 98.4239C253.473 97.9883 252.891 97.8478 252.43 98.1086C251.968 98.3694 251.805 98.934 252.066 99.3725Z" fill="#263238"/>
<path d="M249.046 97.5836C249.184 97.6237 249.786 97.1222 250.78 96.8527C251.775 96.5747 252.606 96.6836 252.689 96.5833C252.732 96.5346 252.571 96.4372 252.21 96.3827C251.849 96.3283 251.273 96.3397 250.651 96.5088C250.032 96.6808 249.553 96.9588 249.298 97.1823C249.04 97.4059 248.98 97.5664 249.046 97.5836Z" fill="#263238"/>
<path d="M258.381 101.047C258.352 100.996 257.751 101.248 256.802 101.701C256.567 101.821 256.326 101.913 256.192 101.784C256.037 101.658 255.977 101.36 255.916 101.03C255.782 100.36 255.638 99.6575 255.489 98.918C254.853 95.9259 254.243 93.5213 254.122 93.55C254.002 93.5758 254.42 96.0234 255.054 99.0155C255.214 99.7492 255.366 100.451 255.515 101.119C255.592 101.426 255.633 101.804 255.959 102.065C256.126 102.191 256.366 102.208 256.533 102.154C256.704 102.105 256.831 102.028 256.945 101.965C257.857 101.449 258.41 101.099 258.381 101.047Z" fill="#263238"/>
<path d="M264.682 111.448C264.682 111.448 269.098 109 271.675 103.779C271.675 103.779 272.231 109.591 265.544 113.05L264.682 111.448Z" fill="#FF9A6C"/>
<path d="M261.401 100.005C261.252 100.088 261.857 101.031 261.478 102.22C261.103 103.41 260.028 103.952 260.106 104.086C260.131 104.152 260.447 104.126 260.882 103.863C261.306 103.611 261.828 103.086 262.06 102.358C262.289 101.63 262.149 100.945 261.934 100.538C261.719 100.125 261.464 99.9592 261.401 100.005Z" fill="#263238"/>
<path d="M246.877 93.9701C247.161 94.0905 247.737 93.5173 248.554 93.0845C249.359 92.6231 250.153 92.4397 250.199 92.1387C250.216 91.9954 249.998 91.8435 249.589 91.8034C249.187 91.7604 248.6 91.8608 248.044 92.1674C247.485 92.4741 247.089 92.9183 246.912 93.2794C246.734 93.6434 246.748 93.9071 246.877 93.9701Z" fill="#263238"/>
<path d="M261.778 93.3303C262.053 93.7574 261.916 94.342 261.474 94.6372C261.036 94.9296 260.457 94.8235 260.182 94.3965C259.909 93.9694 260.044 93.3848 260.485 93.0924C260.924 92.7944 261.503 92.9033 261.778 93.3303Z" fill="#263238"/>
<path d="M260.434 90.6945C260.408 90.832 259.732 91.1931 259.072 91.987C258.407 92.7752 258.132 93.5547 258.012 93.5948C257.952 93.6149 257.943 93.4401 258.061 93.099C258.172 92.7608 258.436 92.2478 258.849 91.7549C259.262 91.2619 259.7 90.9323 259.992 90.7833C260.29 90.6257 260.451 90.6285 260.434 90.6945Z" fill="#263238"/>
<path d="M258.475 87.4865C258.418 87.7932 257.606 87.9881 256.778 88.4667C255.93 88.9167 255.331 89.5014 255.047 89.3867C254.915 89.3265 254.907 89.0571 255.102 88.6845C255.288 88.3177 255.701 87.862 256.277 87.5439C256.853 87.2257 257.452 87.1197 257.864 87.157C258.274 87.1914 258.495 87.3432 258.475 87.4865Z" fill="#263238"/>
<path d="M269.325 91.7035C269.027 91.2335 268.858 89.7804 269.273 89.4078C270.388 88.4219 272.678 87.0864 274.719 90.216C277.507 94.495 272.635 96.4095 272.546 96.292C272.483 96.2003 270.36 93.3256 269.325 91.7035Z" fill="#FFBF9D"/>
<path d="M272.956 93.963C272.967 93.9372 273.065 93.9659 273.228 93.943C273.389 93.92 273.626 93.8226 273.793 93.5904C274.137 93.129 274.051 92.1632 273.569 91.3808C273.326 90.9824 273.005 90.6642 272.666 90.4493C272.334 90.22 271.987 90.134 271.735 90.2429C271.474 90.3375 271.402 90.5811 271.428 90.733C271.451 90.8907 271.531 90.9595 271.514 90.9795C271.508 90.9996 271.374 90.9681 271.294 90.7703C271.256 90.6729 271.239 90.5381 271.288 90.392C271.336 90.2401 271.46 90.0997 271.629 90.0137C271.973 89.8217 272.469 89.9334 272.838 90.1713C273.231 90.4006 273.603 90.7502 273.873 91.1945C274.409 92.0743 274.492 93.1663 273.99 93.7509C273.741 94.0261 273.432 94.0977 273.234 94.0805C273.03 94.0633 272.947 93.9802 272.956 93.963Z" fill="#FF9A6C"/>
<path d="M269.524 89.3218L269.06 91.1274C261.557 89.2301 245.441 82.965 246.364 83.3605C246.364 83.3605 248.921 80.1018 252.884 78.666C256.851 77.233 264.738 75.1494 267.051 79.4742C269.364 83.799 269.524 89.3218 269.524 89.3218Z" fill="#101010"/>
<g opacity="0.3">
<path d="M266.133 97.3887C267.151 96.1034 267.361 94.5737 266.602 93.9722C265.842 93.3706 264.401 93.9249 263.383 95.2102C262.365 96.4955 262.155 98.0251 262.914 98.6267C263.673 99.2283 265.114 98.674 266.133 97.3887Z" fill="#FF9A6C"/>
</g>
<path d="M301.448 125.663C301.563 126.239 297.421 147.296 297.421 147.296L298.456 158.456C298.456 158.456 299.837 161.795 299.436 163.864C298.23 167.252 289.225 170.943 276.594 172.035C265.663 172.379 260.599 166.856 260.599 166.856C260.269 162.274 259.464 144.585 257.303 131.117C256.162 124.001 257.716 118.209 256.916 115.996L265.597 113.577C266.322 116.016 268.781 116.567 271.306 116.423C275.419 116.188 279.016 112.325 279.449 108.229L293.501 111.167L301.448 125.663Z" fill="#F1625C"/>
<path d="M290.553 110.822C298.196 111.836 307.13 113.885 309.904 134.065C309.956 134.423 297.222 139.227 297.222 139.227C297.222 139.227 295.041 128.081 294.923 127.734C294.809 127.393 290.553 110.822 290.553 110.822Z" fill="#F1625C"/>
<path d="M299.601 120.588C299.624 120.588 299.667 120.947 299.73 121.597C299.793 122.248 299.853 123.193 299.899 124.363C299.994 126.701 299.974 129.943 299.664 133.502C299.352 137.065 298.804 140.258 298.306 142.545C298.059 143.688 297.836 144.608 297.658 145.239C297.483 145.869 297.377 146.216 297.357 146.21C297.331 146.205 297.397 145.849 297.529 145.207C297.664 144.568 297.85 143.642 298.068 142.496C298.503 140.203 299.008 137.016 299.323 133.471C299.63 129.926 299.687 126.701 299.656 124.369C299.641 123.202 299.618 122.256 299.595 121.606C299.575 120.952 299.575 120.591 299.601 120.588Z" fill="#263238"/>
<path d="M300.198 163.036C300.198 163.036 298.885 163.366 296.724 163.81C296.251 150.724 295.449 130.435 294.893 127.735C294.067 123.709 267.359 129.168 263.238 129.377C259.303 129.578 262.452 160.737 262.931 163.861C261.914 163.38 260.991 162.812 260.2 162.142C260.2 162.142 256.769 172.052 255.712 179.266C255.121 183.284 253.814 194.476 253.814 194.476C253.814 194.476 249.982 232.915 247.867 246.514C247.563 248.486 247.658 250.501 248.148 252.435L256.428 301.504L276.195 302.109L270.821 251.048L282.761 205.118L283.824 205.221L286.788 300.662L305.569 300.306L308.257 233.445C309.521 206.416 318.924 186.612 300.198 163.036Z" fill="#005060"/>
<path d="M291.891 110.82C289.923 110.118 287.383 108.889 285.291 109.683C285.291 109.683 286.4 125.371 287.785 126.97C289.169 128.569 293.009 126.97 293.009 126.97L291.891 110.82Z" fill="#005060"/>
<path d="M264.803 113.58C262.742 113.236 261.275 114.291 259.357 115.443C259.357 115.443 262.49 129.504 264.138 130.834C265.786 132.164 269.28 129.908 269.28 129.908L264.803 113.58Z" fill="#005060"/>
<path d="M286.151 196.287C286.16 196.308 285.87 196.459 285.317 196.674C285.036 196.778 284.686 196.892 284.262 196.952C283.841 197.013 283.328 197.007 282.806 196.806C282.282 196.623 281.777 196.15 281.58 195.517C281.37 194.892 281.362 194.215 281.296 193.525C281.187 192.126 281.069 190.601 280.943 189.002C280.705 185.789 280.508 182.883 280.384 180.777C280.33 179.774 280.287 178.937 280.253 178.28C280.23 177.69 280.227 177.363 280.253 177.36C280.278 177.36 280.321 177.681 280.387 178.269C280.45 178.922 280.534 179.759 280.628 180.757C280.814 182.857 281.052 185.763 281.29 188.973C281.405 190.576 281.514 192.1 281.614 193.499C281.668 194.195 281.671 194.863 281.852 195.422C282.021 195.989 282.428 196.388 282.895 196.574C283.844 196.955 284.724 196.692 285.268 196.54C285.833 196.373 286.142 196.262 286.151 196.287Z" fill="#455A64"/>
<path d="M262.897 164.348C262.922 164.345 262.968 164.549 263.037 164.921C263.109 165.294 263.16 165.841 263.177 166.521C263.2 167.2 263.143 168.011 263.011 168.9C262.859 169.788 262.621 170.751 262.257 171.725C261.882 172.694 261.423 173.577 260.948 174.339C260.455 175.096 259.959 175.738 259.492 176.231C259.03 176.727 258.629 177.105 258.328 177.334C258.03 177.569 257.861 177.692 257.844 177.672C257.801 177.624 258.446 177.091 259.308 176.07C259.744 175.563 260.211 174.921 260.678 174.173C261.128 173.416 261.57 172.554 261.934 171.605C262.289 170.651 262.53 169.713 262.696 168.848C262.845 167.982 262.922 167.189 262.931 166.521C262.96 165.182 262.833 164.357 262.897 164.348Z" fill="#455A64"/>
<path d="M306.464 174.047C306.458 174.07 306.274 174.058 305.936 174.018C305.601 173.984 305.122 173.884 304.543 173.717C303.38 173.391 301.826 172.697 300.365 171.551C298.909 170.399 297.874 169.046 297.284 167.994C296.986 167.467 296.776 167.025 296.665 166.707C296.547 166.392 296.49 166.214 296.513 166.206C296.573 166.18 296.857 166.865 297.493 167.868C298.126 168.868 299.164 170.158 300.58 171.278C302.001 172.396 303.497 173.104 304.615 173.485C305.738 173.869 306.472 173.987 306.464 174.047Z" fill="#455A64"/>
<path d="M288.864 141.882C288.87 141.882 288.878 141.939 288.896 142.051C288.91 142.183 288.927 142.349 288.95 142.552C288.996 143.019 289.053 143.664 289.131 144.478C289.271 146.181 289.472 148.6 289.718 151.572C289.747 151.947 289.778 152.328 289.81 152.721C289.87 153.096 289.827 153.601 289.549 153.959C289.417 154.14 289.242 154.297 289.039 154.403C288.83 154.518 288.6 154.552 288.4 154.598C287.981 154.687 287.554 154.779 287.124 154.87C285.393 155.229 283.528 155.55 281.559 155.836C279.59 156.123 277.518 156.366 275.359 156.559C274.821 156.601 274.276 156.647 273.729 156.693L272.903 156.751C272.64 156.765 272.321 156.814 272.012 156.71C271.711 156.619 271.439 156.43 271.244 156.18C271.046 155.939 270.951 155.59 270.909 155.329C270.794 154.776 270.679 154.217 270.562 153.655C270.097 151.411 269.642 149.219 269.2 147.101C269.014 146.043 268.662 145.011 268.77 143.905C268.831 143.361 269.063 142.83 269.415 142.423C269.759 142.008 270.203 141.715 270.656 141.475C271.568 141.008 272.531 140.787 273.442 140.552C274.356 140.323 275.253 140.128 276.122 139.956C277.859 139.609 279.492 139.371 280.988 139.208C282.484 139.041 283.846 138.955 285.041 138.912C286.21 138.855 287.345 138.858 288.042 139.446C288.383 139.724 288.566 140.082 288.669 140.391C288.772 140.704 288.813 140.979 288.838 141.2C288.864 141.42 288.873 141.589 288.876 141.704C288.87 141.821 288.87 141.882 288.864 141.882C288.847 141.882 288.83 141.65 288.764 141.217C288.681 140.804 288.592 140.082 287.953 139.557C287.296 139.03 286.219 139.036 285.044 139.116C283.854 139.176 282.499 139.279 281.011 139.46C279.521 139.638 277.899 139.89 276.173 140.245C275.311 140.426 274.422 140.624 273.511 140.856C272.605 141.094 271.659 141.32 270.803 141.767C269.946 142.194 269.189 142.951 269.1 143.951C269 144.937 269.341 145.98 269.533 147.038C269.974 149.156 270.43 151.345 270.903 153.592C271.017 154.154 271.135 154.713 271.25 155.263C271.301 155.558 271.361 155.77 271.519 155.974C271.671 156.169 271.88 156.315 272.112 156.387C272.342 156.467 272.588 156.43 272.877 156.412L273.703 156.355C274.25 156.312 274.792 156.269 275.331 156.226C277.48 156.04 279.55 155.802 281.513 155.527C283.479 155.249 285.336 154.939 287.067 154.595C287.497 154.506 287.921 154.418 288.337 154.334C288.552 154.289 288.747 154.257 288.907 154.168C289.076 154.082 289.217 153.956 289.328 153.81C289.555 153.5 289.601 153.145 289.546 152.75C289.517 152.357 289.492 151.973 289.466 151.6C289.268 148.623 289.102 146.204 288.987 144.498C288.939 143.682 288.904 143.037 288.876 142.567C288.867 142.363 288.861 142.197 288.855 142.065C288.855 141.939 288.858 141.882 288.864 141.882Z" fill="#455A64"/>
<path d="M268.808 128.165C268.831 128.159 268.906 128.337 269.018 128.669C269.126 129.002 269.278 129.486 269.379 130.111C269.473 130.733 269.51 131.521 269.224 132.341C268.963 133.149 268.238 133.988 267.206 134.169C266.702 134.269 266.163 134.16 265.753 133.9C265.34 133.642 265.045 133.286 264.804 132.94C264.337 132.237 264.013 131.564 263.77 130.982C263.529 130.403 263.38 129.913 263.294 129.575C263.208 129.234 263.182 129.042 263.205 129.036C263.26 129.022 263.469 129.764 263.993 130.882C264.26 131.435 264.607 132.094 265.065 132.753C265.3 133.077 265.578 133.392 265.934 133.607C266.283 133.828 266.713 133.908 267.146 133.828C268.032 133.67 268.668 132.965 268.923 132.229C269.201 131.489 269.198 130.744 269.135 130.139C268.977 128.927 268.742 128.179 268.808 128.165Z" fill="#455A64"/>
<path d="M292.854 125.844C292.88 125.841 292.937 126.013 293.02 126.328C293.094 126.646 293.206 127.111 293.243 127.707C293.278 128.297 293.221 129.048 292.822 129.765C292.444 130.484 291.61 131.086 290.647 131.117C290.168 131.14 289.687 131 289.314 130.742C288.939 130.484 288.669 130.14 288.46 129.802C288.05 129.12 287.789 128.472 287.595 127.913C287.216 126.793 287.162 126.062 287.196 126.056C287.254 126.045 287.394 126.755 287.824 127.83C288.042 128.363 288.328 128.999 288.727 129.633C288.93 129.942 289.182 130.243 289.503 130.461C289.824 130.679 290.217 130.791 290.633 130.771C291.469 130.742 292.192 130.24 292.544 129.607C292.917 128.974 293 128.28 292.997 127.715C292.963 126.572 292.785 125.853 292.854 125.844Z" fill="#455A64"/>
<path d="M266.952 129.643C267.414 129.638 267.847 130.053 267.849 130.515C267.858 130.979 267.442 131.409 266.978 131.414C266.514 131.42 266.084 131.005 266.078 130.543C266.072 130.079 266.488 129.652 266.952 129.643Z" fill="#455A64"/>
<path d="M290.402 126.122C290.863 126.116 291.296 126.532 291.299 126.996C291.307 127.46 290.889 127.89 290.424 127.896C289.963 127.902 289.533 127.486 289.527 127.025C289.522 126.56 289.937 126.13 290.402 126.122Z" fill="#455A64"/>
<path d="M256.942 116.991C256.659 116.681 252.638 113.755 250.227 112.316C248.671 111.388 245.197 111.419 243.888 111.25C243.888 111.25 225.883 108.874 222.183 108.874C215.207 110.815 213.938 114.05 215.122 117.074C217.469 118.071 239.812 118.361 245.298 118.321C246.453 119.178 247.573 119.843 247.573 119.843L249.903 123.067C249.903 123.067 250.373 124.325 250.58 125.744C250.786 127.162 251.795 126.363 251.795 126.363C251.795 126.363 251.938 127.24 252.294 128.472C252.299 128.484 252.302 128.495 252.305 128.509C252.595 129.426 253.959 129.234 254.042 128.28L254.34 124.829C254.34 124.829 254.873 127.787 255.185 129.429C255.246 129.727 255.352 129.96 255.486 130.137C256.077 130.914 257.326 130.458 257.335 129.484L257.387 124.119L256.289 121.089L257.945 123.709C257.945 123.709 258.573 125.168 259 127.32C259.175 128.18 259.542 128.478 259.926 128.527C260.571 128.607 261.087 127.991 260.998 127.351L260.313 122.548C260.313 122.548 257.229 117.303 256.942 116.991Z" fill="#FFBF9D"/>
<path fill-rule="evenodd" clip-rule="evenodd" d="M223.068 184.564C222.621 184.096 222.097 183.899 221.428 183.929C220.273 183.98 219.113 183.935 217.955 183.946C217.061 183.954 216.528 184.45 216.55 185.222C216.571 185.957 217.091 186.414 217.955 186.422C219.113 186.432 220.273 186.387 221.428 186.439C222.097 186.468 222.621 186.272 223.068 185.804C223.068 185.39 223.068 184.977 223.068 184.564Z" fill="#F1625C"/>
<path fill-rule="evenodd" clip-rule="evenodd" d="M183.997 224.869C184.465 224.421 184.661 223.897 184.632 223.229C184.581 222.073 184.626 220.914 184.615 219.756C184.606 218.86 184.11 218.328 183.339 218.35C182.603 218.371 182.147 218.892 182.139 219.756C182.128 220.913 182.173 222.073 182.122 223.229C182.093 223.897 182.289 224.421 182.757 224.869C183.171 224.869 183.584 224.869 183.997 224.869Z" fill="#F1625C"/>
<path fill-rule="evenodd" clip-rule="evenodd" d="M183.377 145.498C182.226 145.977 182.137 146.123 182.137 147.513C182.137 148.546 182.128 149.578 182.139 150.611C182.148 151.478 182.606 151.999 183.344 152.017C184.119 152.036 184.606 151.504 184.616 150.599C184.626 149.567 184.565 148.53 184.634 147.503C184.694 146.622 184.444 145.959 183.687 145.498C183.584 145.498 183.481 145.498 183.377 145.498Z" fill="#F1625C"/>
<path fill-rule="evenodd" clip-rule="evenodd" d="M190.963 176.004C187.457 172.385 184.952 168.268 183.561 163.491C183.396 162.923 183.26 162.345 183.104 161.774C182.924 161.11 182.487 160.805 181.798 160.812C177.589 160.852 174.724 164.521 175.761 168.625C176.487 171.495 177.305 174.341 178.085 177.209C177.821 177.402 177.532 177.308 177.267 177.309C173.288 177.316 169.31 177.314 165.331 177.314C164.578 177.314 163.833 177.384 163.13 177.675C161.591 178.311 160.693 179.466 160.488 181.114C160.278 182.809 160.829 184.237 162.219 185.251C162.648 185.564 162.67 185.761 162.469 186.217C161.615 188.158 162.201 190.276 163.941 191.498C164.364 191.794 164.353 191.992 164.162 192.411C163.251 194.416 163.83 196.526 165.637 197.816C165.967 198.052 166.043 198.204 165.864 198.599C164.498 201.614 166.4 204.851 169.709 204.903C175.028 204.986 180.353 205.059 185.672 204.841C187.376 204.772 189.038 204.347 190.649 203.779C191.042 203.641 191.203 203.689 191.398 204.079C192.188 205.66 193.506 206.425 195.268 206.427C197.464 206.43 199.66 206.43 201.856 206.427C204.624 206.424 206.465 204.601 206.469 201.822C206.478 194.976 206.472 188.13 206.472 181.283C206.472 179.914 206.485 178.545 206.468 177.176C206.437 174.488 204.675 172.721 201.99 172.696C199.949 172.676 197.908 172.692 195.866 172.692C193.185 172.692 192.044 173.446 190.963 176.004ZM190.917 190.205C190.917 193.589 190.915 196.972 190.92 200.355C190.921 200.752 190.938 201.081 190.434 201.252C188.692 201.84 186.927 202.363 185.085 202.385C180.024 202.445 174.961 202.437 169.9 202.453C169.746 202.454 169.59 202.432 169.439 202.402C168.489 202.209 167.866 201.427 167.89 200.466C167.915 199.49 168.57 198.84 169.566 198.656C170.386 198.504 171.203 198.521 172.025 198.5C172.862 198.479 173.388 197.968 173.372 197.228C173.358 196.517 172.845 196.045 172.044 196.025C171.502 196.012 170.959 196.003 170.417 196.027C169.65 196.061 168.882 196.188 168.117 196.166C167.014 196.135 166.21 195.255 166.226 194.21C166.24 193.18 166.924 192.49 168.05 192.428C168.951 192.377 169.855 192.39 170.757 192.349C171.386 192.321 171.754 191.932 171.876 191.349C171.995 190.78 171.729 190.337 171.242 190.051C170.947 189.877 170.6 189.882 170.261 189.882C168.971 189.883 167.679 189.915 166.391 189.859C165.265 189.81 164.555 188.961 164.6 187.849C164.642 186.805 165.362 186.133 166.472 186.115C167.169 186.103 167.867 186.106 168.564 186.103C169.688 186.099 170.239 185.68 170.229 184.837C170.22 184.024 169.687 183.623 168.606 183.621C167.341 183.619 166.075 183.635 164.81 183.615C163.768 183.6 163.016 182.903 162.933 181.93C162.839 180.811 163.428 180.039 164.547 179.85C164.85 179.799 165.163 179.8 165.473 179.799C171.281 179.796 177.091 179.799 182.9 179.796C183.89 179.795 184.454 179.352 184.468 178.59C184.483 177.811 183.876 177.325 182.867 177.316C182.325 177.31 181.781 177.296 181.24 177.321C180.848 177.34 180.667 177.237 180.553 176.81C179.778 173.899 178.937 171.005 178.167 168.093C177.656 166.159 178.631 164.158 180.298 163.533C180.726 163.373 180.961 163.374 181.117 163.932C182.769 169.849 185.997 174.802 190.454 178.982C190.809 179.315 190.928 179.659 190.926 180.132C190.909 183.49 190.917 186.847 190.917 190.205ZM193.44 189.692C193.427 189.692 193.415 189.692 193.402 189.692C193.402 185.56 193.394 181.427 193.406 177.295C193.41 175.79 194.038 175.182 195.531 175.178C197.546 175.173 199.56 175.177 201.575 175.177C203.425 175.177 203.987 175.733 203.987 177.567C203.988 184.256 203.988 190.945 203.988 197.635C203.988 199.055 204.001 200.476 203.983 201.896C203.967 203.21 203.212 203.942 201.905 203.944C199.71 203.948 197.515 203.95 195.319 203.943C194.107 203.939 193.443 203.284 193.441 202.087C193.436 197.955 193.44 193.824 193.44 189.692Z" fill="#F1625C"/>
<path fill-rule="evenodd" clip-rule="evenodd" d="M195.349 153.319C195.423 154.028 195.699 154.475 196.291 154.624C196.872 154.769 197.424 154.605 197.666 154.043C198.253 152.678 198.804 151.295 199.298 149.895C199.498 149.33 199.208 148.82 198.667 148.547C198.133 148.277 197.511 148.299 197.209 148.813C196.364 150.253 195.921 151.871 195.349 153.319Z" fill="#F1625C"/>
<path fill-rule="evenodd" clip-rule="evenodd" d="M167.395 149.669C167.439 149.821 167.475 149.997 167.539 150.163C168.002 151.358 168.46 152.555 168.941 153.742C169.264 154.536 169.906 154.852 170.587 154.595C171.256 154.342 171.548 153.639 171.257 152.865C170.797 151.642 170.321 150.424 169.825 149.215C169.554 148.554 169.018 148.283 168.326 148.452C167.73 148.597 167.465 149.052 167.395 149.669Z" fill="#F1625C"/>
<path fill-rule="evenodd" clip-rule="evenodd" d="M146.598 170.491C146.603 171.083 146.932 171.45 147.448 171.656C148.662 172.141 149.876 172.626 151.102 173.08C151.832 173.351 152.517 173.058 152.774 172.422C153.036 171.773 152.749 171.083 152.027 170.787C150.771 170.27 149.507 169.769 148.229 169.311C147.378 169.006 146.583 169.614 146.598 170.491Z" fill="#F1625C"/>
<path fill-rule="evenodd" clip-rule="evenodd" d="M151.571 197.158C151.41 197.202 151.205 197.239 151.016 197.312C149.844 197.765 148.672 198.215 147.508 198.687C146.727 199.004 146.407 199.661 146.66 200.348C146.901 201.004 147.624 201.293 148.39 201.004C149.613 200.542 150.834 200.074 152.042 199.576C152.705 199.303 153 198.699 152.815 198.079C152.64 197.495 152.205 197.217 151.571 197.158Z" fill="#F1625C"/>
<path fill-rule="evenodd" clip-rule="evenodd" d="M195.358 216.972C195.405 217.142 195.449 217.371 195.531 217.584C195.975 218.732 196.419 219.879 196.88 221.019C197.214 221.847 197.882 222.169 198.59 221.874C199.239 221.603 199.49 220.905 199.192 220.121C198.736 218.923 198.269 217.73 197.79 216.541C197.523 215.881 197.009 215.584 196.311 215.741C195.714 215.875 195.434 216.323 195.358 216.972Z" fill="#F1625C"/>
<path fill-rule="evenodd" clip-rule="evenodd" d="M170.114 215.704C169.561 215.716 169.185 216.011 168.988 216.497C168.479 217.757 167.984 219.022 167.513 220.296C167.266 220.966 167.589 221.653 168.197 221.888C168.831 222.133 169.511 221.879 169.794 221.2C170.327 219.924 170.838 218.636 171.298 217.332C171.602 216.469 170.993 215.686 170.114 215.704Z" fill="#F1625C"/>
<path fill-rule="evenodd" clip-rule="evenodd" d="M218.87 169.208C218.73 169.25 218.53 169.296 218.341 169.369C217.17 169.824 215.998 170.275 214.835 170.747C214.036 171.072 213.717 171.703 213.967 172.386C214.212 173.056 214.921 173.359 215.689 173.071C216.913 172.613 218.13 172.134 219.34 171.639C220 171.37 220.28 170.842 220.116 170.147C219.977 169.551 219.528 169.277 218.87 169.208Z" fill="#F1625C"/>
<path fill-rule="evenodd" clip-rule="evenodd" d="M218.766 201.162C219.494 201.106 219.928 200.845 220.096 200.3C220.28 199.701 220.142 199.103 219.548 198.846C218.185 198.256 216.796 197.722 215.396 197.225C214.82 197.021 214.333 197.306 214.05 197.842C213.764 198.382 213.802 198.994 214.309 199.297C215.743 200.153 217.37 200.569 218.766 201.162Z" fill="#F1625C"/>
<path fill-rule="evenodd" clip-rule="evenodd" d="M146.853 183.943C146.234 183.943 145.615 183.932 144.996 183.945C144.112 183.965 143.694 184.378 143.699 185.203C143.704 185.982 144.123 186.408 144.958 186.419C146.274 186.436 147.589 186.436 148.905 186.418C149.7 186.408 150.208 185.914 150.219 185.202C150.229 184.455 149.712 183.964 148.865 183.946C148.195 183.931 147.524 183.943 146.853 183.943Z" fill="#F1625C"/>
<path fill-rule="evenodd" clip-rule="evenodd" d="M206.465 160.794C206.477 161.412 206.726 161.781 207.183 161.993C207.641 162.205 208.118 162.172 208.479 161.824C209.496 160.843 210.508 159.853 211.468 158.816C211.93 158.317 211.849 157.717 211.395 157.211C210.954 156.721 210.238 156.645 209.732 157.119C208.7 158.084 207.716 159.101 206.728 160.112C206.531 160.314 206.431 160.594 206.465 160.794Z" fill="#F1625C"/>
<path fill-rule="evenodd" clip-rule="evenodd" d="M155.005 158.007C155.03 158.511 155.243 158.82 155.525 159.099C156.364 159.933 157.193 160.776 158.038 161.604C158.68 162.233 159.409 162.277 159.939 161.744C160.467 161.212 160.418 160.486 159.786 159.844C158.921 158.964 158.052 158.088 157.169 157.225C156.772 156.837 156.302 156.691 155.758 156.939C155.258 157.167 155.051 157.577 155.005 158.007Z" fill="#F1625C"/>
<path fill-rule="evenodd" clip-rule="evenodd" d="M206.466 209.563C206.443 209.86 206.614 210.17 206.877 210.433C207.765 211.326 208.649 212.225 209.555 213.101C210.162 213.687 210.887 213.692 211.399 213.159C211.891 212.647 211.882 211.947 211.325 211.37C210.431 210.445 209.516 209.542 208.6 208.64C208.196 208.242 207.706 208.139 207.184 208.375C206.725 208.583 206.478 208.955 206.466 209.563Z" fill="#F1625C"/>
<path fill-rule="evenodd" clip-rule="evenodd" d="M155.013 212.402C155.053 212.811 155.27 213.189 155.73 213.416C156.199 213.648 156.664 213.598 157.022 213.257C158.044 212.28 159.06 211.294 160.018 210.256C160.469 209.768 160.416 209.159 159.958 208.648C159.527 208.168 158.778 208.081 158.293 208.539C157.263 209.507 156.282 210.526 155.292 211.536C155.093 211.74 155.004 212.018 155.013 212.402Z" fill="#F1625C"/>
<path d="M183.581 250.507C180.996 252.376 177.058 252.376 174.47 250.507L102.098 198.24V301.296H255.954V198.24L183.581 250.507Z" fill="#00B5D5"/>
<path d="M102.066 301.295L174.625 251.472C177.219 249.693 180.767 249.693 183.361 251.472L255.92 301.295" fill="#00B5D5"/>
<path d="M255.925 301.295C255.925 301.295 255.788 301.212 255.521 301.037C255.249 300.857 254.862 300.596 254.358 300.258C253.326 299.558 251.821 298.538 249.887 297.226C246.006 294.575 240.406 290.751 233.487 286.028C226.569 281.291 218.332 275.65 209.186 269.388C204.615 266.25 199.817 262.962 194.845 259.549C192.36 257.844 189.829 256.107 187.261 254.347C185.98 253.464 184.685 252.579 183.381 251.682C182.114 250.788 180.569 250.3 178.999 250.3C177.431 250.298 175.88 250.785 174.614 251.679C173.312 252.573 172.02 253.459 170.733 254.341C168.165 256.104 165.634 257.844 163.15 259.549C158.177 262.957 153.377 266.25 148.805 269.388C139.66 275.65 131.426 281.291 124.504 286.031C117.586 290.751 111.986 294.575 108.105 297.226C106.171 298.538 104.669 299.556 103.637 300.258C103.127 300.596 102.74 300.857 102.47 301.037C102.207 301.212 102.066 301.295 102.066 301.295C102.066 301.295 102.193 301.195 102.45 301.009C102.72 300.822 103.101 300.553 103.597 300.203C104.617 299.493 106.113 298.455 108.031 297.122C111.9 294.451 117.477 290.602 124.37 285.839C131.277 281.084 139.499 275.424 148.63 269.139C153.199 265.998 157.997 262.704 162.966 259.285C165.451 257.574 167.982 255.84 170.55 254.075C171.834 253.192 173.126 252.307 174.43 251.41C175.746 250.481 177.368 249.968 179.002 249.974C180.632 249.971 182.254 250.487 183.57 251.415C184.871 252.309 186.164 253.195 187.451 254.078C190.018 255.843 192.543 257.58 195.031 259.285C200.001 262.702 204.796 266 209.364 269.139C218.492 275.424 226.715 281.084 233.622 285.839C240.515 290.597 246.098 294.451 249.964 297.12C251.881 298.455 253.375 299.493 254.398 300.203C254.896 300.553 255.28 300.822 255.544 301.009C255.799 301.195 255.925 301.295 255.925 301.295Z" fill="#263238"/>
</svg>
