<svg width="30" height="30" viewBox="0 0 30 30" fill="none" xmlns="http://www.w3.org/2000/svg">
<path d="M15 20.625V18.125" stroke="#005060" stroke-width="1.5" stroke-linecap="round"/>
<path d="M5.33476 23.5559C5.61586 25.6437 7.34516 27.2794 9.44957 27.3761C11.2203 27.4575 13.0191 27.5 15 27.5C16.9809 27.5 18.7797 27.4575 20.5504 27.3761C22.6548 27.2794 24.3841 25.6437 24.6652 23.5559C24.8487 22.1934 25 20.797 25 19.375C25 17.953 24.8487 16.5566 24.6652 15.1941C24.3841 13.1063 22.6548 11.4706 20.5504 11.3739C18.7797 11.2925 16.9809 11.25 15 11.25C13.0191 11.25 11.2203 11.2925 9.44957 11.3739C7.34516 11.4706 5.61586 13.1063 5.33476 15.1941C5.1513 16.5566 5 17.953 5 19.375C5 20.797 5.15131 22.1934 5.33476 23.5559Z" stroke="#005060" stroke-width="1.5"/>
<path d="M9.375 11.25V8.125C9.375 5.0184 11.8934 2.5 15 2.5C18.1066 2.5 20.625 5.0184 20.625 8.125V11.25" stroke="#005060" stroke-width="1.5" stroke-linecap="round" stroke-linejoin="round"/>
</svg>
