<svg width="227" height="52" viewBox="0 0 227 52" fill="none" xmlns="http://www.w3.org/2000/svg">
<path d="M26.2816 46.9142L16.0125 32.731L30.533 7.50648L52.6865 46.8787L26.2816 46.9142Z" fill="#00B5D5"/>
<path d="M29.885 9.2373L53.9645 50.9438C54.3462 51.6006 55.0474 52 55.8018 52H58.855C59.5562 52 60 51.2367 59.6449 50.6332L30.6749 0.459313C30.3199 -0.153104 29.4412 -0.153104 29.0951 0.459313L19.4384 17.1898L36.6039 46.9231H26.2815L15.0627 27.4944C14.7077 26.882 13.829 26.882 13.4829 27.4944L0.125077 50.6332C-0.229947 51.2456 0.213833 52 0.915006 52H3.96822C4.72264 52 5.42382 51.5917 5.80547 50.9438L14.2728 36.2724L23.3437 51.9911H45.3818L25.2963 17.1898L29.885 9.2373Z" fill="#005060"/>
<path d="M59.9468 33.894L67.0827 18.548C67.1538 18.4149 67.3135 18.2995 67.4733 18.2995H67.704C67.8638 18.2995 68.0236 18.4149 68.0946 18.548L75.2306 33.894C75.3637 34.1869 75.1862 34.4887 74.84 34.4887H72.3105C71.9022 34.4887 71.7158 34.3555 71.5117 33.9206L70.6951 32.1189H64.4911L63.6745 33.9472C63.5591 34.2224 63.3106 34.4975 62.8491 34.4975H60.3373C59.9911 34.4886 59.8136 34.1958 59.9468 33.894ZM69.3194 29.0124L67.5887 25.2491H67.5709L65.8579 29.0124H69.3194Z" fill="#005060"/>
<path d="M78.1774 18.7078C78.1774 18.477 78.3815 18.2995 78.6123 18.2995H79.1803L88.2778 27.0598H88.3044V18.9652C88.3044 18.7344 88.4908 18.5303 88.7393 18.5303H91.473C91.7038 18.5303 91.9079 18.7344 91.9079 18.9652V34.3111C91.9079 34.5419 91.7038 34.7194 91.473 34.7194H91.1091C91.0381 34.7194 90.8606 34.6484 90.8162 34.604L81.8075 25.5509H81.7897V34.0537C81.7897 34.2845 81.6034 34.4887 81.3548 34.4887H78.6389C78.4081 34.4887 78.204 34.2845 78.204 34.0537L78.1774 18.7078Z" fill="#005060"/>
<path d="M96.896 18.7078C96.896 18.477 97.1001 18.2995 97.3309 18.2995H97.8989L106.996 27.0598H107.023V18.9652C107.023 18.7344 107.209 18.5303 107.458 18.5303H110.192C110.422 18.5303 110.627 18.7344 110.627 18.9652V34.3111C110.627 34.5419 110.422 34.7194 110.192 34.7194H109.828C109.757 34.7194 109.579 34.6484 109.535 34.604L100.526 25.5509H100.499V34.0537C100.499 34.2845 100.313 34.4887 100.065 34.4887H97.3486C97.1179 34.4887 96.9137 34.2845 96.9137 34.0537L96.896 18.7078Z" fill="#005060"/>
<path d="M115.348 18.9561C115.348 18.7253 115.552 18.5212 115.783 18.5212H118.588C118.836 18.5212 119.023 18.7253 119.023 18.9561V28.1956C119.023 29.7932 120.212 31.0713 121.828 31.0713C123.47 31.0713 124.677 29.7932 124.677 28.1956V18.9561C124.677 18.7253 124.863 18.5212 125.112 18.5212H127.916C128.147 18.5212 128.351 18.7253 128.351 18.9561V28.3731C128.351 31.8435 125.431 34.7103 121.828 34.7103C118.251 34.7103 115.348 31.8346 115.348 28.3731V18.9561Z" fill="#005060"/>
<path d="M133.117 18.9561C133.117 18.7253 133.321 18.5212 133.552 18.5212H136.286C136.517 18.5212 136.721 18.7253 136.721 18.9561V34.0535C136.721 34.2843 136.517 34.4884 136.286 34.4884H133.552C133.321 34.4884 133.117 34.2843 133.117 34.0535V18.9561Z" fill="#005060"/>
<path d="M143.795 21.8762H140.537C140.289 21.8762 140.103 21.672 140.103 21.4413V18.9561C140.103 18.7253 140.289 18.5212 140.537 18.5212H150.665C150.913 18.5212 151.099 18.7253 151.099 18.9561V21.4413C151.099 21.672 150.913 21.8762 150.665 21.8762H147.407V34.0535C147.407 34.2843 147.203 34.4884 146.972 34.4884H144.239C144.008 34.4884 143.804 34.2843 143.804 34.0535V21.8762H143.795Z" fill="#005060"/>
<path d="M158.182 26.8021L153.141 19.1869C152.954 18.894 153.141 18.5301 153.505 18.5301H156.469C156.656 18.5301 156.762 18.6455 156.833 18.7342L160.002 23.4117L163.17 18.7342C163.241 18.6455 163.33 18.5301 163.534 18.5301H166.499C166.862 18.5301 167.049 18.894 166.862 19.1869L161.759 26.7844V34.0624C161.759 34.2932 161.555 34.4973 161.324 34.4973H158.608C158.36 34.4973 158.173 34.2932 158.173 34.0624V26.8021H158.182Z" fill="#005060"/>
<path d="M168.993 30.388C170.182 30.388 171.185 31.391 171.185 32.5803C171.185 33.743 170.182 34.7282 168.993 34.7282C167.83 34.7282 166.845 33.7519 166.845 32.5803C166.853 31.391 167.83 30.388 168.993 30.388Z" fill="#005060"/>
<path d="M181.356 18.2995C183.637 18.2995 185.324 19.0096 186.877 20.4208C187.081 20.6072 187.081 20.8735 186.904 21.0598L185.129 22.906C184.969 23.0657 184.72 23.0657 184.56 22.906C183.717 22.1515 182.599 21.7433 181.481 21.7433C178.907 21.7433 177.007 23.8912 177.007 26.4385C177.007 28.968 178.924 31.0715 181.498 31.0715C182.572 31.0715 183.735 30.681 184.552 29.9798C184.711 29.8467 185.004 29.8467 185.146 30.0065L186.921 31.897C187.081 32.0567 187.055 32.3496 186.895 32.5094C185.342 34.0182 183.38 34.7194 181.356 34.7194C176.794 34.7194 173.129 31.0982 173.129 26.5361C173.12 21.974 176.794 18.2995 181.356 18.2995Z" fill="#005060"/>
<path d="M197.687 18.2995C202.249 18.2995 205.897 21.974 205.897 26.5272C205.897 31.0804 202.249 34.7105 197.687 34.7105C193.125 34.7105 189.504 31.0893 189.504 26.5272C189.504 21.9652 193.125 18.2995 197.687 18.2995ZM197.687 31.0715C200.199 31.0715 202.249 29.0213 202.249 26.5361C202.249 24.0243 200.199 21.9563 197.687 21.9563C195.202 21.9563 193.152 24.0332 193.152 26.5361C193.143 29.0124 195.202 31.0715 197.687 31.0715Z" fill="#005060"/>
<path d="M211.329 18.6634C211.356 18.4593 211.56 18.2995 211.738 18.2995H212.101C212.217 18.2995 212.421 18.3883 212.492 18.5303L217.782 28.3822H217.826L223.116 18.5303C223.187 18.3972 223.391 18.2995 223.507 18.2995H223.87C224.057 18.2995 224.261 18.4593 224.279 18.6634L226.853 33.9916C226.897 34.2845 226.693 34.4887 226.418 34.4887H223.728C223.524 34.4887 223.32 34.3023 223.294 34.1248L222.264 27.0775H222.22L218.385 34.462C218.314 34.5952 218.11 34.7105 217.995 34.7105H217.587C217.453 34.7105 217.267 34.5952 217.196 34.462L213.344 27.0775H213.3L212.297 34.1248C212.27 34.3111 212.093 34.4887 211.862 34.4887H209.172C208.897 34.4887 208.693 34.2845 208.738 33.9916L211.329 18.6634Z" fill="#005060"/>
</svg>
