<svg xmlns="http://www.w3.org/2000/svg" width="120" height="120" viewBox="0 0 120 120">
  <g id="Grupo_28" data-name="Grupo 28" transform="translate(-137 -255)">
    <circle id="Elipse_4" data-name="Elipse 4" cx="60" cy="60" r="60" transform="translate(137 255)" fill="#dbebff"/>
    <g id="XMLID_1017_" transform="translate(116 277.981)">
      <g id="XMLID_1278_" transform="translate(54 0)">
        <path id="XMLID_1279_" d="M227.223,48.966a1.623,1.623,0,0,1,1.744,1.46,1.324,1.324,0,1,0,2.648,0,4.156,4.156,0,0,0-3.068-3.917v-.184a1.324,1.324,0,1,0-2.648,0v.184a4.157,4.157,0,0,0-3.068,3.917,4.262,4.262,0,0,0,4.392,4.109,1.483,1.483,0,1,1-1.744,1.46,1.324,1.324,0,1,0-2.648,0,4.156,4.156,0,0,0,3.068,3.917V60.1a1.324,1.324,0,1,0,2.648,0v-.184a4.157,4.157,0,0,0,3.068-3.917,4.262,4.262,0,0,0-4.392-4.109,1.483,1.483,0,1,1,0-2.92Z" transform="translate(-200.474 -39.041)" fill="#1a3a68" stroke="#dbebff" stroke-width="0.2"/>
        <path id="XMLID_1303_" d="M106.175,36.314h-6.052A14.234,14.234,0,0,0,85.9,50.532v5.5l-3.831,3.831V28.276A14.179,14.179,0,0,0,94.2,9.707a1.324,1.324,0,0,0-2.514.833,11.507,11.507,0,1,1-7.512-7.374A1.324,1.324,0,0,0,84.963.637a14.171,14.171,0,1,0-5.537,27.639V48.448l-3.831-3.831v-5.5A14.234,14.234,0,0,0,61.376,24.9H55.324A1.324,1.324,0,0,0,54,26.22v6.052A14.234,14.234,0,0,0,68.218,46.491h5.5l5.7,5.7V65.152H66.162a1.324,1.324,0,1,0,0,2.648H95.337a1.324,1.324,0,1,0,0-2.648H82.074v-1.54l5.7-5.7h5.5A14.234,14.234,0,0,0,107.5,43.691V37.639A1.324,1.324,0,0,0,106.175,36.314ZM68.218,43.842a11.583,11.583,0,0,1-11.57-11.57V27.544h4.728a11.583,11.583,0,0,1,11.57,11.57v2.855L67.1,36.121a1.324,1.324,0,0,0-1.873,1.873l5.848,5.848Zm36.633-.151a11.583,11.583,0,0,1-11.57,11.57H90.426l5.848-5.848A1.324,1.324,0,0,0,94.4,47.54l-5.848,5.848V50.533a11.583,11.583,0,0,1,11.57-11.57h4.728Z" transform="translate(-54 0)" fill="#1a3a68" stroke="#dbebff" stroke-width="0.2"/>
        <path id="XMLID_1306_" d="M315.7,30.848a1.325,1.325,0,1,0-.936-.388A1.334,1.334,0,0,0,315.7,30.848Z" transform="translate(-279.9 -24.466)" fill="#1a3a68" stroke="#dbebff" stroke-width="0.2"/>
      </g>
    </g>
  </g>
</svg>
