<svg xmlns="http://www.w3.org/2000/svg" xmlns:xlink="http://www.w3.org/1999/xlink" width="120" height="120" viewBox="0 0 120 120">
  <defs>
    <clipPath id="clip-path">
      <path id="path570" d="M0-682.665H76.162V-606.5H0Z"/>
    </clipPath>
  </defs>
  <g id="Grupo_31" data-name="Grupo 31" transform="translate(-137 -255)">
    <circle id="Elipse_4" data-name="Elipse 4" cx="60" cy="60" r="60" transform="translate(137 255)" fill="#dbebff"/>
    <g id="address" transform="translate(-69.419 -110.002)">
      <g id="g564" transform="translate(0 682.667)">
        <g id="g566">
          <g id="g568" transform="translate(227.419 384.252)" clip-path="url(#clip-path)">
            <g id="g574" transform="translate(49.077 -655.592)">
              <path id="path576" d="M-132.763,0a2.975,2.975,0,0,0-2.975,2.975v35.4a2.978,2.978,0,0,1-2.975,2.975h-5.554q-1.094,1.438-2.354,2.9c-.959,1.108-1.913,2.133-2.813,3.055h10.722a8.935,8.935,0,0,0,8.925-8.925V2.975A2.975,2.975,0,0,0-132.763,0" transform="translate(149.434 0)" fill="#1a3a68" stroke="#dbebff" stroke-width="3.33"/>
            </g>
            <g id="g578" transform="translate(7.438 -655.592)">
              <path id="path580" d="M-134.051-352.367q-1.262-1.456-2.354-2.9h-5.554a2.978,2.978,0,0,1-2.975-2.975v-35.4a2.975,2.975,0,0,0-2.975-2.975,2.975,2.975,0,0,0-2.975,2.975v35.4a8.935,8.935,0,0,0,8.925,8.925h10.722c-.9-.923-1.854-1.947-2.813-3.055" transform="translate(150.885 396.615)" fill="#1a3a68" stroke="#dbebff" stroke-width="3.33"/>
            </g>
            <g id="g582" transform="translate(4.165 -677.012)">
              <path id="path584" d="M-540.167-234.546-574.083-264-608-234.546" transform="translate(607.998 263.999)" fill="none" stroke="#1a3a68" stroke-linecap="square" stroke-miterlimit="10" stroke-width="2.6"/>
            </g>
            <g id="g586" transform="translate(33.618 -636.714)">
              <path id="path588" d="M0-35.537A4.463,4.463,0,0,1,4.463-40a4.463,4.463,0,0,1,4.463,4.463,4.463,4.463,0,0,1-4.463,4.463A4.463,4.463,0,0,1,0-35.537" transform="translate(0 39)" fill="#1a3a68" stroke="#dbebff" stroke-width="4.33"/>
            </g>
            <g id="g590" transform="translate(23.953 -646.369)">
              <path id="path592" d="M-225.014-119.609c0,9.613-14.128,21.114-14.128,21.114S-253.27-110-253.27-119.609v-.891a14.128,14.128,0,0,1,14.128-14.129A14.128,14.128,0,0,1-225.014-120.5Z" transform="translate(253.27 134.629)" fill="none" stroke="#1a3a68" stroke-miterlimit="10" stroke-width="2.6"/>
            </g>
          </g>
        </g>
      </g>
    </g>
  </g>
</svg>
