<svg xmlns="http://www.w3.org/2000/svg" width="120" height="120" viewBox="0 0 120 120">
  <g id="Grupo_30" data-name="Grupo 30" transform="translate(-137 -255)">
    <circle id="Elipse_4" data-name="Elipse 4" cx="60" cy="60" r="60" transform="translate(137 255)" fill="#dbebff"/>
    <g id="card" transform="translate(157.854 215.997)">
      <path id="Trazado_33" data-name="Trazado 33" d="M73.142,73.5H4.151A4.158,4.158,0,0,0,0,77.651v46.8A4.158,4.158,0,0,0,4.151,128.6h68.99a4.158,4.158,0,0,0,4.151-4.151v-46.8A4.158,4.158,0,0,0,73.142,73.5Zm1.887,50.95a1.89,1.89,0,0,1-1.887,1.887H4.151a1.89,1.89,0,0,1-1.887-1.887v-46.8a1.89,1.89,0,0,1,1.887-1.887h68.99a1.89,1.89,0,0,1,1.887,1.887Z" fill="#1a3a68" stroke="#1a3a68" stroke-width="0.2"/>
      <path id="Trazado_34" data-name="Trazado 34" d="M354.738,323.5h-15.1A2.645,2.645,0,0,0,337,326.142v6.039a2.645,2.645,0,0,0,2.642,2.642h15.1a2.645,2.645,0,0,0,2.642-2.642v-6.039A2.645,2.645,0,0,0,354.738,323.5Zm.377,8.68a.377.377,0,0,1-.377.377h-15.1a.377.377,0,0,1-.377-.377v-6.039a.377.377,0,0,1,.377-.377h15.1a.377.377,0,0,1,.377.377Z" transform="translate(-286.125 -212.259)" fill="#1a3a68" stroke="#1a3a68" stroke-width="0.2"/>
      <path id="Trazado_35" data-name="Trazado 35" d="M63.777,113.5H42.642A2.645,2.645,0,0,0,40,116.142v27.173a2.645,2.645,0,0,0,2.642,2.642H63.777a2.645,2.645,0,0,0,2.642-2.642V116.142A2.645,2.645,0,0,0,63.777,113.5Zm.377,29.815a.377.377,0,0,1-.377.377H42.642a.377.377,0,0,1-.377-.377v-1.51a10.909,10.909,0,0,1,6.1-9.813,7.157,7.157,0,0,0,9.689,0,10.909,10.909,0,0,1,6.1,9.813Zm-10.945-11.7a4.906,4.906,0,1,1,4.906-4.906A4.906,4.906,0,0,1,53.209,131.616Zm6.273-1.434a7.171,7.171,0,1,0-12.537,0,13.168,13.168,0,0,0-4.68,4.215V116.142a.377.377,0,0,1,.377-.377H63.777a.377.377,0,0,1,.377.377V134.4A13.168,13.168,0,0,0,59.482,130.181Z" transform="translate(-33.961 -33.961)" fill="#1a3a68" stroke="#1a3a68" stroke-width="0.2"/>
      <path id="Trazado_36" data-name="Trazado 36" d="M102.432,383.5H84.882a1.132,1.132,0,0,0,0,2.264h17.549a1.132,1.132,0,0,0,0-2.264Z" transform="translate(-71.107 -263.202)" fill="#1a3a68" stroke="#1a3a68" stroke-width="0.2"/>
      <path id="Trazado_37" data-name="Trazado 37" d="M42,383.5h-.868a1.132,1.132,0,0,0,0,2.264H42a1.132,1.132,0,0,0,0-2.264Z" transform="translate(-33.961 -263.202)" fill="#1a3a68" stroke="#1a3a68" stroke-width="0.2"/>
      <path id="Trazado_38" data-name="Trazado 38" d="M299.962,155.764h23.349a1.132,1.132,0,1,0,0-2.264H299.962a1.132,1.132,0,0,0,0,2.264Z" transform="translate(-253.718 -67.923)" fill="#1a3a68" stroke="#1a3a68" stroke-width="0.2"/>
      <path id="Trazado_39" data-name="Trazado 39" d="M254.632,155.764h1.208a1.132,1.132,0,1,0,0-2.264h-1.208a1.132,1.132,0,0,0,0,2.264Z" transform="translate(-215.231 -67.923)" fill="#1a3a68" stroke="#1a3a68" stroke-width="0.2"/>
      <path id="Trazado_40" data-name="Trazado 40" d="M254.632,205.764h30.193a1.132,1.132,0,1,0,0-2.264H254.632a1.132,1.132,0,0,0,0,2.264Z" transform="translate(-215.231 -110.375)" fill="#1a3a68" stroke="#1a3a68" stroke-width="0.2"/>
      <path id="Trazado_41" data-name="Trazado 41" d="M285.957,254.632a1.132,1.132,0,0,0-1.132-1.132H254.632a1.132,1.132,0,0,0,0,2.264h30.193A1.132,1.132,0,0,0,285.957,254.632Z" transform="translate(-215.231 -152.827)" fill="#1a3a68" stroke="#1a3a68" stroke-width="0.2"/>
    </g>
  </g>
</svg>
