<svg width="140" height="126" viewBox="0 0 140 126" fill="none" xmlns="http://www.w3.org/2000/svg">
<path d="M63.5415 90.2196L43.7932 62.9442L71.7173 14.4355L114.32 90.1514L63.5415 90.2196Z" fill="#00B5D5"/>
<path d="M70.4712 17.764L116.778 97.9688C117.512 99.2319 118.86 100 120.311 100H126.183C127.531 100 128.385 98.5321 127.702 97.3715L71.9903 0.883294C71.3075 -0.294431 69.6178 -0.294431 68.9521 0.883294L50.3816 33.0574L83.392 90.2368H63.5414L41.9668 52.8739C41.2841 51.6962 39.5943 51.6962 38.9286 52.8739L13.2405 97.3715C12.5578 98.5492 13.4112 100 14.7596 100H20.6312C22.082 100 23.4304 99.2149 24.1644 97.9688L40.4477 69.7546L57.8917 99.9829H100.273L61.6468 33.0574L70.4712 17.764Z" fill="white"/>
<path d="M0.037151 125.289L6.02099 112.212C6.08053 112.098 6.2145 112 6.34846 112H6.54197C6.67593 112 6.8099 112.098 6.86944 112.212L12.8533 125.289C12.9649 125.539 12.8161 125.796 12.5258 125.796H10.4047C10.0623 125.796 9.90602 125.682 9.73484 125.312L9.05012 123.776H3.84775L3.16304 125.335C3.06628 125.569 2.85789 125.803 2.47088 125.803H0.364626C0.0743657 125.796 -0.0744877 125.546 0.037151 125.289ZM7.89652 121.129L6.44522 117.922H6.43033L4.99391 121.129H7.89652Z" fill="white"/>
<path d="M15.3243 112.348C15.3243 112.151 15.4955 112 15.689 112H16.1653L23.7939 119.465H23.8163V112.567C23.8163 112.371 23.9726 112.197 24.1809 112.197H26.4733C26.6668 112.197 26.838 112.371 26.838 112.567V125.645C26.838 125.841 26.6668 125.993 26.4733 125.993H26.1681C26.1086 125.993 25.9597 125.932 25.9225 125.894L18.3683 118.179H18.3534V125.425C18.3534 125.622 18.1971 125.796 17.9887 125.796H15.7113C15.5178 125.796 15.3466 125.622 15.3466 125.425L15.3243 112.348Z" fill="white"/>
<path d="M31.0207 112.348C31.0207 112.151 31.1918 112 31.3854 112H31.8617L39.4903 119.465H39.5126V112.567C39.5126 112.371 39.6689 112.197 39.8773 112.197H42.1697C42.3632 112.197 42.5343 112.371 42.5343 112.567V125.645C42.5343 125.841 42.3632 125.993 42.1697 125.993H41.8645C41.805 125.993 41.6561 125.932 41.6189 125.894L34.0647 118.179H34.0423V125.425C34.0423 125.622 33.8861 125.796 33.6777 125.796H31.4002C31.2067 125.796 31.0355 125.622 31.0355 125.425L31.0207 112.348Z" fill="white"/>
<path d="M46.4938 112.56C46.4938 112.363 46.6649 112.189 46.8585 112.189H49.2103C49.4187 112.189 49.575 112.363 49.575 112.56V120.433C49.575 121.795 50.5723 122.884 51.9269 122.884C53.3037 122.884 54.3159 121.795 54.3159 120.433V112.56C54.3159 112.363 54.4722 112.189 54.6806 112.189H57.0325C57.226 112.189 57.3971 112.363 57.3971 112.56V120.584C57.3971 123.542 54.9485 125.985 51.9269 125.985C48.9275 125.985 46.4938 123.534 46.4938 120.584V112.56Z" fill="white"/>
<path d="M61.3938 112.56C61.3938 112.363 61.565 112.189 61.7585 112.189H64.0508C64.2443 112.189 64.4155 112.363 64.4155 112.56V125.425C64.4155 125.622 64.2443 125.796 64.0508 125.796H61.7585C61.565 125.796 61.3938 125.622 61.3938 125.425V112.56Z" fill="white"/>
<path d="M70.3473 115.048H67.6159C67.4075 115.048 67.2512 114.874 67.2512 114.677V112.56C67.2512 112.363 67.4075 112.189 67.6159 112.189H76.1079C76.3163 112.189 76.4726 112.363 76.4726 112.56V114.677C76.4726 114.874 76.3163 115.048 76.1079 115.048H73.3765V125.425C73.3765 125.622 73.2053 125.796 73.0118 125.796H70.7195C70.526 125.796 70.3548 125.622 70.3548 125.425V115.048H70.3473Z" fill="white"/>
<path d="M82.4116 119.246L78.1843 112.756C78.028 112.507 78.1843 112.197 78.4894 112.197H80.9752C81.1315 112.197 81.2208 112.295 81.2804 112.37L83.9374 116.356L86.5944 112.37C86.6539 112.295 86.7283 112.197 86.8995 112.197H89.3853C89.6905 112.197 89.8468 112.507 89.6905 112.756L85.411 119.231V125.433C85.411 125.629 85.2398 125.803 85.0463 125.803H82.7689C82.5605 125.803 82.4042 125.629 82.4042 125.433V119.246H82.4116Z" fill="white"/>
<path d="M91.4767 122.301C92.474 122.301 93.315 123.156 93.315 124.17C93.315 125.16 92.474 126 91.4767 126C90.5017 126 89.6755 125.168 89.6755 124.17C89.683 123.156 90.5017 122.301 91.4767 122.301Z" fill="white"/>
<path d="M101.844 112C103.757 112 105.171 112.605 106.474 113.808C106.645 113.967 106.645 114.193 106.496 114.352L105.007 115.925C104.873 116.062 104.665 116.062 104.531 115.925C103.824 115.283 102.886 114.935 101.949 114.935C99.7902 114.935 98.1974 116.765 98.1974 118.936C98.1974 121.091 99.805 122.884 101.963 122.884C102.864 122.884 103.839 122.551 104.524 121.954C104.658 121.84 104.903 121.84 105.022 121.976L106.511 123.587C106.645 123.723 106.622 123.973 106.488 124.109C105.186 125.395 103.541 125.993 101.844 125.993C98.0188 125.993 94.945 122.907 94.945 119.019C94.9376 115.131 98.0188 112 101.844 112Z" fill="white"/>
<path d="M115.539 112C119.364 112 122.423 115.131 122.423 119.011C122.423 122.891 119.364 125.985 115.539 125.985C111.713 125.985 108.676 122.899 108.676 119.011C108.676 115.124 111.713 112 115.539 112ZM115.539 122.884C117.645 122.884 119.364 121.137 119.364 119.019C119.364 116.878 117.645 115.116 115.539 115.116C113.455 115.116 111.735 116.886 111.735 119.019C111.728 121.129 113.455 122.884 115.539 122.884Z" fill="white"/>
<path d="M126.978 112.31C127 112.136 127.171 112 127.32 112H127.625C127.722 112 127.893 112.076 127.953 112.197L132.389 120.592H132.426L136.862 112.197C136.921 112.083 137.092 112 137.189 112H137.494C137.651 112 137.822 112.136 137.837 112.31L139.995 125.372C140.032 125.622 139.861 125.796 139.63 125.796H137.375C137.204 125.796 137.033 125.637 137.01 125.486L136.147 119.48H136.11L132.895 125.773C132.835 125.887 132.664 125.985 132.567 125.985H132.225C132.113 125.985 131.957 125.887 131.897 125.773L128.667 119.48H128.63L127.789 125.486C127.767 125.645 127.618 125.796 127.424 125.796H125.169C124.939 125.796 124.767 125.622 124.805 125.372L126.978 112.31Z" fill="white"/>
</svg>
