<svg width="70" height="70" viewBox="0 0 70 70" fill="none" xmlns="http://www.w3.org/2000/svg">
<circle cx="35" cy="35" r="35" fill="white"/>
<path d="M41.8105 48.4381C40.398 48.4381 38.9105 48.1006 37.373 47.4506C35.873 46.8131 34.3605 45.9381 32.8855 44.8756C31.423 43.8006 30.0105 42.6006 28.673 41.2881C27.348 39.9506 26.148 38.5381 25.0855 37.0881C24.0105 35.5881 23.148 34.088 22.5355 32.6381C21.8855 31.088 21.5605 29.588 21.5605 28.1755C21.5605 27.2006 21.7355 26.2755 22.073 25.413C22.423 24.5255 22.9855 23.7005 23.748 22.988C24.7105 22.038 25.8105 21.563 26.9855 21.563C27.473 21.563 27.973 21.6755 28.398 21.8755C28.8855 22.1005 29.298 22.438 29.598 22.888L32.498 26.9755C32.7605 27.338 32.9605 27.688 33.098 28.038C33.2605 28.413 33.348 28.7881 33.348 29.1506C33.348 29.6256 33.2105 30.088 32.948 30.5255C32.7605 30.8631 32.473 31.2256 32.1105 31.5881L31.2605 32.4755C31.273 32.5131 31.2855 32.5381 31.298 32.5631C31.448 32.8256 31.748 33.2755 32.323 33.9506C32.9355 34.6506 33.5105 35.2881 34.0855 35.8756C34.823 36.6006 35.4355 37.1756 36.0105 37.6506C36.723 38.2506 37.1855 38.5506 37.4605 38.6881L37.4355 38.7506L38.348 37.8505C38.7355 37.4631 39.1105 37.1756 39.473 36.9881C40.1605 36.5631 41.0355 36.4881 41.9105 36.8506C42.2355 36.9881 42.5855 37.1756 42.9605 37.4381L47.1105 40.3881C47.573 40.7006 47.9105 41.1006 48.1105 41.5756C48.298 42.0506 48.3855 42.4881 48.3855 42.9256C48.3855 43.5256 48.248 44.1256 47.9855 44.6881C47.723 45.2506 47.398 45.7381 46.9855 46.1881C46.273 46.9756 45.498 47.5381 44.598 47.9006C43.7355 48.2506 42.798 48.4381 41.8105 48.4381ZM26.9855 23.438C26.298 23.438 25.6605 23.738 25.048 24.338C24.473 24.8755 24.073 25.463 23.823 26.1005C23.5605 26.7505 23.4355 27.438 23.4355 28.1755C23.4355 29.338 23.7105 30.6006 24.2605 31.9006C24.823 33.2256 25.6105 34.6006 26.6105 35.9756C27.6105 37.3506 28.748 38.6881 29.998 39.9506C31.248 41.1881 32.598 42.3381 33.9855 43.3506C35.3355 44.3381 36.723 45.1381 38.098 45.7131C40.2355 46.6256 42.2355 46.8381 43.8855 46.1506C44.523 45.8881 45.0855 45.4881 45.598 44.9131C45.8855 44.6006 46.1105 44.2631 46.298 43.8631C46.448 43.5506 46.523 43.2256 46.523 42.9006C46.523 42.7006 46.4855 42.5006 46.3855 42.2756C46.348 42.2006 46.273 42.0631 46.0355 41.9006L41.8855 38.9506C41.6355 38.7756 41.4105 38.6506 41.198 38.5631C40.923 38.4506 40.8105 38.3381 40.3855 38.6006C40.1355 38.7256 39.9105 38.9131 39.6605 39.1631L38.7105 40.1006C38.223 40.5756 37.473 40.688 36.898 40.4755L36.5605 40.3256C36.048 40.0506 35.448 39.6256 34.7855 39.0631C34.1855 38.5506 33.5355 37.9506 32.748 37.1756C32.1355 36.5506 31.523 35.8881 30.8855 35.1506C30.298 34.4631 29.873 33.8756 29.6105 33.3881L29.4605 33.0131C29.3855 32.7256 29.3605 32.5631 29.3605 32.3881C29.3605 31.9381 29.523 31.538 29.8355 31.2255L30.773 30.2506C31.023 30.0006 31.2105 29.7631 31.3355 29.5505C31.4355 29.3881 31.473 29.2506 31.473 29.1256C31.473 29.0256 31.4355 28.8756 31.373 28.7256C31.2855 28.5255 31.148 28.3005 30.973 28.063L28.073 23.963C27.948 23.788 27.798 23.663 27.6105 23.5755C27.4105 23.488 27.198 23.438 26.9855 23.438ZM37.4355 38.7631L37.2355 39.6131L37.573 38.7381C37.5105 38.7256 37.4605 38.7381 37.4355 38.7631Z" fill="#005060"/>
</svg>
