<?xml version="1.0" encoding="utf-8"?>
<!-- Generator: Adobe Illustrator 18.0.0, SVG Export Plug-In . SVG Version: 6.00 Build 0)  -->
<!DOCTYPE svg PUBLIC "-//W3C//DTD SVG 1.1//EN" "http://www.w3.org/Graphics/SVG/1.1/DTD/svg11.dtd">
<svg version="1.1" id="controls.fw-Page_x25_201" xmlns="http://www.w3.org/2000/svg" xmlns:xlink="http://www.w3.org/1999/xlink"
	 x="0px" y="0px" width="144px" height="32px" viewBox="0 0 144 32" enable-background="new 0 0 144 32" xml:space="preserve">
<path fill="none" d="z"/>
<g id="BG">
</g>
<path id="Line" fill="none" stroke="#FFFFFF" d="M98.5,7.5h11"/>
<path id="Line2" fill="none" stroke="#FFFFFF" d="M98.5,3.5h11"/>
<path id="Line3" fill="none" stroke="#FFFFFF" d="M98.5,11.5h11"/>
<path id="Ellipse" fill="#FFFFFF" d="M108,11.5c0-0.8,0.4-1.5,1-1.5s1,0.7,1,1.5s-0.4,1.5-1,1.5S108,12.3,108,11.5z"/>
<path id="Ellipse2" fill="#FFFFFF" d="M104,7.5c0-0.8,0.4-1.5,1-1.5s1,0.7,1,1.5S105.6,9,105,9S104,8.3,104,7.5z"/>
<path id="Ellipse3" fill="#FFFFFF" d="M108,3.5c0-0.8,0.4-1.5,1-1.5s1,0.7,1,1.5S109.6,5,109,5S108,4.3,108,3.5z"/>
<g id="off">
	<rect x="83" y="21" fill="#333333" stroke="#FFFFFF" width="10" height="6"/>
</g>
<g id="on">
	
		<radialGradient id="Ellipse4_1_" cx="59.9286" cy="24.3" r="0.5" gradientTransform="matrix(14 0 0 -10 -751 251)" gradientUnits="userSpaceOnUse">
		<stop  offset="0" style="stop-color:#FFFFFF"/>
		<stop  offset="1" style="stop-color:#F2F2F2;stop-opacity:0.2"/>
	</radialGradient>
	<path id="Ellipse4" fill="url(#Ellipse4_1_)" d="M81,8c0-2.8,3.1-5,7-5s7,2.2,7,5s-3.1,5-7,5S81,10.8,81,8z"/>
	<rect x="83" y="5" fill="#333333" stroke="#FFFFFF" width="10" height="6"/>
</g>
<g id="on2">
	
		<linearGradient id="SVGID_1_" gradientUnits="userSpaceOnUse" x1="59.1667" y1="24.7978" x2="59.1667" y2="22.2225" gradientTransform="matrix(12 0 0 -11.125 -638 277.875)">
		<stop  offset="0" style="stop-color:#FFFFFF"/>
		<stop  offset="1" style="stop-color:#C8C8C8"/>
	</linearGradient>
	<path fill="url(#SVGID_1_)" d="M73.8,4.2c1.4,0.7,2.4,2.1,2.4,3.8c0,2.3-1.9,4.2-4.2,4.2s-4.2-1.9-4.2-4.2c0-1.7,1-3.1,2.4-3.8
		l-1.3-1.3C67.2,3.9,66,5.8,66,8c0,3.3,2.7,6,6,6s6-2.7,6-6c0-2.2-1.2-4.1-2.9-5.1L73.8,4.2z"/>
	
		<linearGradient id="SVGID_2_" gradientUnits="userSpaceOnUse" x1="51.7" y1="25.6" x2="51.7" y2="23.2125" gradientTransform="matrix(5 0 0 -5 -190 130)">
		<stop  offset="0" style="stop-color:#FFFFFF"/>
		<stop  offset="1" style="stop-color:#C8C8C8"/>
	</linearGradient>
	<path fill="url(#SVGID_2_)" d="M71,2h-5l5,5V2z"/>
</g>
<g id="off2">
	<path fill="#A8A8B7" d="M73.8,20.2c1.4,0.7,2.4,2.1,2.4,3.8c0,2.3-1.9,4.2-4.2,4.2s-4.2-1.9-4.2-4.2c0-1.7,1-3.1,2.4-3.8l-1.3-1.3
		c-1.7,1.1-2.9,3-2.9,5.1c0,3.3,2.7,6,6,6s6-2.7,6-6c0-2.2-1.2-4.1-2.9-5.1L73.8,20.2z"/>
	<path fill="#A8A8B7" d="M71,18h-5l5,5V18z"/>
</g>
<rect x="49" y="2" display="none" fill="none" stroke="#B0B0B0" width="14" height="12"/>
<text transform="matrix(1 0 0 1 51 27)" font-family="'ArialMT'" font-size="10">cc</text>
<path fill="none" stroke="#000000" d="M55.3,6.6c-4.7-3.2-4.9,5.9,0,3"/>
<path fill="none" stroke="#000000" d="M60.3,6.6c-4.7-3.2-4.9,5.9,0,3"/>
<path d="M50,3h12v10H50V3z M49,2v12h14V2H49z"/>
<rect x="49" y="2" fill="none" width="14" height="12"/>
<g>
	<path d="M24,4v8l-2.4-1.8L21.3,10H21h-3V6h3h0.3l0.3-0.2L24,4 M25,2l-4,3h-4v6h4l4,3V2L25,2z"/>
</g>
<g>
	<path d="M24,20v8l-2.4-1.8L21.3,26H21h-3v-4h3h0.3l0.3-0.2L24,20 M25,18l-4,3h-4v6h4l4,3V18L25,18z"/>
</g>
<path fill="none" stroke="#000000" d="M27.5,18c0,0,3.1-0.6,3,6s-3,6-3,6"/>
<path fill="none" stroke="#000000" d="M26,21c0,0,2-0.3,2,3c0,3.3-2,3-2,3"/>
<g id="Polygon">
	<path d="M4,4.8l6.1,3.7L4,12.2V4.8 M3,3v11l9-5.5L3,3L3,3z"/>
</g>
<g>
	<path d="M6,19v10H4V19H6 M7,18H3v12h4V18L7,18z"/>
</g>
<g>
	<path d="M12,19v10h-2V19H12 M13,18H9v12h4V18L13,18z"/>
</g>
<g>
	<path d="M36.6,3L35,4.6V3H36.6 M39,2h-5v5L39,2L39,2z"/>
</g>
<g>
	<path d="M35,11.4l1.6,1.6H35V11.4 M34,9v5h5L34,9L34,9z"/>
</g>
<g>
	<path d="M45,3v1.6L43.4,3H45 M46,2h-5l5,5V2L46,2z"/>
</g>
<g>
	<path d="M45,11.4V13h-1.6L45,11.4 M46,9l-5,5h5V9L46,9z"/>
</g>
<g>
	<path d="M43,20.4l0.6,0.6H43V20.4 M42,18v4h4L42,18L42,18z"/>
</g>
<g>
	<path d="M37,20.4V21h-0.6L37,20.4 M38,18l-4,4h4V18L38,18z"/>
</g>
<g>
	<path d="M37,27v0.6L36.4,27H37 M38,26h-4l4,4V26L38,26z"/>
</g>
<g>
	<path d="M43.6,27L43,27.6V27H43.6 M46,26h-4v4L46,26L46,26z"/>
</g>
<linearGradient id="SVGID_3_" gradientUnits="userSpaceOnUse" x1="58.1" y1="24.8" x2="58.1" y2="23.8" gradientTransform="matrix(10 0 0 -10 -461 251)">
	<stop  offset="0" style="stop-color:#FFFFFF"/>
	<stop  offset="1" style="stop-color:#C8C8C8"/>
</linearGradient>
<rect x="115" y="3" fill="url(#SVGID_3_)" width="10" height="10"/>
<linearGradient id="SVGID_4_" gradientUnits="userSpaceOnUse" x1="59.6385" y1="24.6077" x2="59.6385" y2="23.6077" gradientTransform="matrix(13.1648 0 0 -13.1648 -649.1293 325.3728)">
	<stop  offset="0" style="stop-color:#FFFFFF"/>
	<stop  offset="0.9944" style="stop-color:#C8C8C8"/>
</linearGradient>
<path fill="url(#SVGID_4_)" d="M135.2,6.2c1-0.4,2.2,0.1,2.6,1.1c0.4,1-0.1,2.2-1.1,2.6c-1,0.4-2.2-0.1-2.6-1.1S134.2,6.6,135.2,6.2
	z M133.3,1.4L136,4l2.7-2.6l0.1,3.8l3.8,0.1L140,8l2.6,2.7l-3.8,0.1l-0.1,3.8L136,12l-2.7,2.6l-0.1-3.8l-3.8-0.1L132,8l-2.6-2.7
	l3.8-0.1L133.3,1.4z"/>
<path fill="none" d="z"/>
</svg>
