<?xml version="1.0" encoding="utf-8"?>
<!-- Generator: Adobe Illustrator 18.0.0, SVG Export Plug-In . SVG Version: 6.00 Build 0)  -->
<!DOCTYPE svg PUBLIC "-//W3C//DTD SVG 1.1//EN" "http://www.w3.org/Graphics/SVG/1.1/DTD/svg11.dtd">
<svg version="1.1" id="Layer_1" xmlns="http://www.w3.org/2000/svg" xmlns:xlink="http://www.w3.org/1999/xlink" x="0px" y="0px"
	 width="24px" height="16px" viewBox="0 0 24 16" enable-background="new 0 0 24 16" xml:space="preserve">
<g>
	<path d="M13,13.5c0,0.3-0.1,0.5-0.3,0.7s-0.4,0.3-0.7,0.3c-0.3,0-0.5-0.1-0.7-0.3l-2.7-2.7c-0.9,0.6-2,1-3.1,1
		c-0.7,0-1.5-0.1-2.1-0.4s-1.3-0.7-1.8-1.2S0.7,9.8,0.4,9.1S0,7.7,0,7c0-0.7,0.1-1.5,0.4-2.1s0.7-1.3,1.2-1.8s1.1-0.9,1.8-1.2
		s1.4-0.4,2.1-0.4c0.7,0,1.5,0.1,2.1,0.4s1.3,0.7,1.8,1.2s0.9,1.1,1.2,1.8S11,6.3,11,7c0,1.1-0.3,2.2-1,3.1l2.7,2.7
		C12.9,13,13,13.2,13,13.5z M8,9.5C8.7,8.8,9,8,9,7c0-1-0.3-1.8-1-2.5c-0.7-0.7-1.5-1-2.5-1c-1,0-1.8,0.3-2.5,1C2.3,5.2,2,6,2,7
		c0,1,0.3,1.8,1,2.5c0.7,0.7,1.5,1,2.5,1C6.5,10.5,7.3,10.2,8,9.5z"/>
</g>
</svg>
